<svg viewBox="0 0 300 300" xmlns="http://www.w3.org/2000/svg">
	<path fill="#7c4dff" d="M9.421 21.947c-5.22 0-9.421 3.707-9.42 9.422V256.46a9.4 9.4 0 0 0 9.42 9.42h281.081a9.4 9.4 0 0 0 9.421-9.42V68.757c.756-5.164-4.201-9.421-9.42-9.421H149.87l-18.88-32.5a9.399 9.399 0 0 0-8.268-4.889z" />
	<path fill="#ffeaa4" d="M125.155 110.388h47.293a12.3 12.3 0 0 1 10.654 6.15l23.667 41.002a12.262 12.262 0 0 1 0 12.28l-23.657 41.044a12.313 12.313 0 0 1-10.654 6.152h-47.281a12.332 12.332 0 0 1-10.676-6.163l-23.646-41.01a12.263 12.263 0 0 1 0-12.282L114.5 116.54a12.313 12.313 0 0 1 10.654-6.151z" />
</svg>